HIERARCHY
ROOT Hips
{
	OFFSET 0.000000 83.214638 0.000000
	CHANNELS 6 Xposition Yposition Zposition Xrotation Yrotation Zrotation
	JOINT Pelvis
	{
		OFFSET 0.000000 0.000000 0.000000
		CHANNELS 3 Xrotation Yrotation Zrotation
		JOINT LeftUpLeg
		{
			OFFSET 8.479700 -4.795502 -0.379100
			CHANNELS 3 Xrotation Yrotation Zrotation
			JOINT LeftLeg
			{
				OFFSET 0.024144 -32.555107 0.112900
				CHANNELS 3 Xrotation Yrotation Zrotation
				JOINT LeftFoot
				{
					OFFSET -0.024144 -32.638630 -3.012600
					CHANNELS 3 Xrotation Yrotation Zrotation
					JOINT LeftToeBase
					{
						OFFSET 0.970200 -13.225400 11.864200
						CHANNELS 3 Xrotation Yrotation Zrotation
						End Site
						{
							OFFSET 0.000000 12.319262 0.000000
						}
					}
					JOINT LFootTongue
					{
						OFFSET 1.142400 -1.059800 6.665200
						CHANNELS 3 Xrotation Yrotation Zrotation
						End Site
						{
							OFFSET 0.000000 12.319262 0.000000
						}
					}
				}
				JOINT LeftPantLeg
				{
					OFFSET 0.918482 -16.533964 -2.284700
					CHANNELS 3 Xrotation Yrotation Zrotation
					End Site
					{
						OFFSET 0.350399 24.744368 0.000000
					}
				}
			}
		}
		JOINT RightUpLeg
		{
			OFFSET -8.479700 -4.795502 -0.379100
			CHANNELS 3 Xrotation Yrotation Zrotation
			JOINT RightLeg
			{
				OFFSET -0.023144 -32.555092 0.112900
				CHANNELS 3 Xrotation Yrotation Zrotation
				JOINT RightFoot
				{
					OFFSET 0.023144 -32.638641 -3.012700
					CHANNELS 3 Xrotation Yrotation Zrotation
					JOINT RightToeBase
					{
						OFFSET -0.970200 -13.225400 11.864200
						CHANNELS 3 Xrotation Yrotation Zrotation
						End Site
						{
							OFFSET 0.000000 12.319244 0.000000
						}
					}
					JOINT RFootTongue
					{
						OFFSET -1.142200 -1.059800 6.665200
						CHANNELS 3 Xrotation Yrotation Zrotation
						End Site
						{
							OFFSET 0.000000 12.319243 0.000000
						}
					}
				}
				JOINT RightPantLeg
				{
					OFFSET -0.919482 -16.533978 -2.284800
					CHANNELS 3 Xrotation Yrotation Zrotation
					End Site
					{
						OFFSET -0.350400 24.744419 0.000000
					}
				}
			}
		}
	}
	JOINT Spine
	{
		OFFSET 0.000000 7.722000 1.166200
		CHANNELS 3 Xrotation Yrotation Zrotation
		JOINT Spine1
		{
			OFFSET 0.000000 12.024101 0.248800
			CHANNELS 3 Xrotation Yrotation Zrotation
			JOINT Spine2
			{
				OFFSET 0.000000 11.502998 -0.491200
				CHANNELS 3 Xrotation Yrotation Zrotation
				JOINT Neck
				{
					OFFSET 0.000000 18.430702 -3.123100
					CHANNELS 3 Xrotation Yrotation Zrotation
					JOINT Head
					{
						OFFSET 0.000000 9.051102 1.034000
						CHANNELS 3 Xrotation Yrotation Zrotation
						JOINT HairB
						{
							OFFSET 0.208400 24.786102 24.822300
							CHANNELS 3 Xrotation Yrotation Zrotation
							End Site
							{
								OFFSET 0.000000 32.263779 0.000000
							}
						}
						JOINT HairA
						{
							OFFSET -7.081100 24.428299 23.196600
							CHANNELS 3 Xrotation Yrotation Zrotation
							End Site
							{
								OFFSET 0.000000 32.263779 0.000000
							}
						}
						JOINT Hat
						{
							OFFSET 16.728800 15.048294 -15.439601
							CHANNELS 3 Xrotation Yrotation Zrotation
							End Site
							{
								OFFSET 0.000000 32.263779 0.000000
							}
						}
					}
				}
				JOINT LeftShoulder
				{
					OFFSET 6.197800 13.665199 -4.064700
					CHANNELS 3 Xrotation Yrotation Zrotation
					JOINT LeftArm
					{
						OFFSET 7.778100 -0.187103 -1.709300
						CHANNELS 3 Xrotation Yrotation Zrotation
						JOINT LeftForeArm
						{
							OFFSET 22.049376 0.000000 0.000000
							CHANNELS 3 Xrotation Yrotation Zrotation
							JOINT LeftHand
							{
								OFFSET 23.009392 0.000000 0.000000
								CHANNELS 3 Xrotation Yrotation Zrotation
								JOINT LeftHandThumb1
								{
									OFFSET 3.507191 -2.063065 3.133727
									CHANNELS 3 Xrotation Yrotation Zrotation
									JOINT LeftHandThumb2
									{
										OFFSET 3.101337 -1.790558 1.790558
										CHANNELS 3 Xrotation Yrotation Zrotation
										JOINT LeftHandThumb3
										{
											OFFSET 3.058640 -1.765907 1.765906
											CHANNELS 3 Xrotation Yrotation Zrotation
											End Site
											{
												OFFSET -0.415260 3.926476 -0.049563
											}
										}
									}
								}
								JOINT LeftHandIndex1
								{
									OFFSET 11.334419 -0.901459 3.706815
									CHANNELS 3 Xrotation Yrotation Zrotation
									JOINT LeftHandIndex2
									{
										OFFSET 3.283112 0.000000 0.000000
										CHANNELS 3 Xrotation Yrotation Zrotation
										JOINT LeftHandIndex3
										{
											OFFSET 3.323853 0.000000 0.000000
											CHANNELS 3 Xrotation Yrotation Zrotation
											End Site
											{
												OFFSET -1.135597 3.097809 0.402452
											}
										}
									}
								}
								JOINT LeftHandMiddle1
								{
									OFFSET 11.335861 0.000000 0.000000
									CHANNELS 3 Xrotation Yrotation Zrotation
									JOINT LeftHandMiddle2
									{
										OFFSET 3.410492 0.000000 0.000000
										CHANNELS 3 Xrotation Yrotation Zrotation
										JOINT LeftHandMiddle3
										{
											OFFSET 3.312172 0.000000 0.000000
											CHANNELS 3 Xrotation Yrotation Zrotation
											End Site
											{
												OFFSET -1.150200 3.080154 0.400270
											}
										}
									}
								}
								JOINT LeftHandRing1
								{
									OFFSET 11.514786 -0.013176 -3.003090
									CHANNELS 3 Xrotation Yrotation Zrotation
									JOINT LeftHandRing2
									{
										OFFSET 3.053307 0.000000 0.000000
										CHANNELS 3 Xrotation Yrotation Zrotation
										JOINT LeftHandRing3
										{
											OFFSET 3.295807 0.000000 0.000000
											CHANNELS 3 Xrotation Yrotation Zrotation
											End Site
											{
												OFFSET -1.281006 3.013344 0.375733
											}
										}
									}
								}
								JOINT LeftHandPinky1
								{
									OFFSET 10.518692 -0.960396 -5.730441
									CHANNELS 3 Xrotation Yrotation Zrotation
									JOINT LeftHandPinky2
									{
										OFFSET 2.861649 0.000000 0.000000
										CHANNELS 3 Xrotation Yrotation Zrotation
										JOINT LeftHandPinky3
										{
											OFFSET 2.863380 0.000000 0.000000
											CHANNELS 3 Xrotation Yrotation Zrotation
											End Site
											{
												OFFSET -0.843597 2.711159 0.369971
											}
										}
									}
								}
							}
							JOINT LSleeve
							{
								OFFSET 6.676277 -0.344902 -1.011730
								CHANNELS 3 Xrotation Yrotation Zrotation
								End Site
								{
									OFFSET 0.000000 14.885353 0.000000
								}
							}
						}
					}
				}
				JOINT RightShoulder
				{
					OFFSET -6.197800 13.665199 -4.064700
					CHANNELS 3 Xrotation Yrotation Zrotation
					JOINT RightArm
					{
						OFFSET -7.778100 -0.187103 -1.709300
						CHANNELS 3 Xrotation Yrotation Zrotation
						JOINT RightForeArm
						{
							OFFSET -22.049376 0.000000 0.000000
							CHANNELS 3 Xrotation Yrotation Zrotation
							JOINT RightHand
							{
								OFFSET -23.009392 0.000000 0.000000
								CHANNELS 3 Xrotation Yrotation Zrotation
								JOINT RightHandThumb1
								{
									OFFSET -3.507191 -2.063065 3.133727
									CHANNELS 3 Xrotation Yrotation Zrotation
									JOINT RightHandThumb2
									{
										OFFSET -3.101337 -1.790558 1.790558
										CHANNELS 3 Xrotation Yrotation Zrotation
										JOINT RightHandThumb3
										{
											OFFSET -3.058640 -1.765907 1.765906
											CHANNELS 3 Xrotation Yrotation Zrotation
											End Site
											{
												OFFSET 0.415260 3.926476 -0.049563
											}
										}
									}
								}
								JOINT RightHandIndex1
								{
									OFFSET -11.334419 -0.901459 3.706815
									CHANNELS 3 Xrotation Yrotation Zrotation
									JOINT RightHandIndex2
									{
										OFFSET -3.283112 0.000000 0.000000
										CHANNELS 3 Xrotation Yrotation Zrotation
										JOINT RightHandIndex3
										{
											OFFSET -3.323853 0.000000 0.000000
											CHANNELS 3 Xrotation Yrotation Zrotation
											End Site
											{
												OFFSET 1.135597 3.097809 0.402452
											}
										}
									}
								}
								JOINT RightHandMiddle1
								{
									OFFSET -11.335861 0.000000 0.000000
									CHANNELS 3 Xrotation Yrotation Zrotation
									JOINT RightHandMiddle2
									{
										OFFSET -3.410492 0.000000 0.000000
										CHANNELS 3 Xrotation Yrotation Zrotation
										JOINT RightHandMiddle3
										{
											OFFSET -3.312172 0.000000 0.000000
											CHANNELS 3 Xrotation Yrotation Zrotation
											End Site
											{
												OFFSET 1.150200 3.080154 0.400270
											}
										}
									}
								}
								JOINT RightHandRing1
								{
									OFFSET -11.514786 -0.013176 -3.003090
									CHANNELS 3 Xrotation Yrotation Zrotation
									JOINT RightHandRing2
									{
										OFFSET -3.053307 0.000000 0.000000
										CHANNELS 3 Xrotation Yrotation Zrotation
										JOINT RightHandRing3
										{
											OFFSET -3.295807 0.000000 0.000000
											CHANNELS 3 Xrotation Yrotation Zrotation
											End Site
											{
												OFFSET 1.281006 3.013344 0.375733
											}
										}
									}
								}
								JOINT RightHandPinky1
								{
									OFFSET -10.518692 -0.960396 -5.730441
									CHANNELS 3 Xrotation Yrotation Zrotation
									JOINT RightHandPinky2
									{
										OFFSET -2.861649 0.000000 0.000000
										CHANNELS 3 Xrotation Yrotation Zrotation
										JOINT RightHandPinky3
										{
											OFFSET -2.863380 0.000000 0.000000
											CHANNELS 3 Xrotation Yrotation Zrotation
											End Site
											{
												OFFSET 0.843597 2.711159 0.369971
											}
										}
									}
								}
							}
							JOINT RSleeve
							{
								OFFSET -6.676277 -0.344902 -1.011730
								CHANNELS 3 Xrotation Yrotation Zrotation
								End Site
								{
									OFFSET 0.000000 14.885353 0.000000
								}
							}
						}
					}
				}
				JOINT Backpack
				{
					OFFSET 0.000000 -2.471497 36.677502
					CHANNELS 3 Xrotation Yrotation Zrotation
					End Site
					{
						OFFSET 0.000000 20.427315 0.000000
					}
				}
				JOINT Hood
				{
					OFFSET 0.000000 18.754097 -10.431000
					CHANNELS 3 Xrotation Yrotation Zrotation
					JOINT Hood1
					{
						OFFSET 0.000000 -5.011002 -7.685901
						CHANNELS 3 Xrotation Yrotation Zrotation
						End Site
						{
							OFFSET 0.000000 9.175140 0.000000
						}
					}
				}
				JOINT LHoodieString
				{
					OFFSET 5.250500 16.397697 3.089900
					CHANNELS 3 Xrotation Yrotation Zrotation
					JOINT LHoodieString1
					{
						OFFSET 0.257700 -6.364304 3.694600
						CHANNELS 3 Xrotation Yrotation Zrotation
						JOINT LHoodieString2
						{
							OFFSET 0.000000 -9.643799 2.679100
							CHANNELS 3 Xrotation Yrotation Zrotation
							End Site
							{
								OFFSET 0.000000 10.009018 0.000000
							}
						}
					}
				}
				JOINT RHoodieString
				{
					OFFSET -5.250500 16.397697 3.089900
					CHANNELS 3 Xrotation Yrotation Zrotation
					JOINT RHoodieString1
					{
						OFFSET -0.257700 -6.364304 3.694600
						CHANNELS 3 Xrotation Yrotation Zrotation
						JOINT RHoodieString2
						{
							OFFSET 0.000000 -9.643799 2.679100
							CHANNELS 3 Xrotation Yrotation Zrotation
							End Site
							{
								OFFSET 0.000000 10.009018 0.000000
							}
						}
					}
				}
			}
			JOINT LBackpack_Strap
			{
				OFFSET 15.223200 -7.719803 -6.610900
				CHANNELS 3 Xrotation Yrotation Zrotation
				End Site
				{
					OFFSET 0.000000 16.040596 0.000000
				}
			}
			JOINT RBackpack_Strap
			{
				OFFSET -15.223000 -7.719803 -6.610900
				CHANNELS 3 Xrotation Yrotation Zrotation
				End Site
				{
					OFFSET 0.000000 16.040596 0.000000
				}
			}
		}
	}
	JOINT BoyFacialAnim_Joint
	{
		OFFSET 1.000000 -82.208099 -1.550900
		CHANNELS 3 Xrotation Yrotation Zrotation
		End Site
		{
			OFFSET 0.000000 30.012791 0.000000
		}
	}
}
MOTION
Frames: 4
Frame Time: 0.033333
6.553942 72.469513 71.105492 30.741520 -10.165320 20.277136 0.000002 -0.000000 0.000001 -67.582693 14.640872 -9.173972 47.126284 0.292085 -1.531233 -9.494867 7.878215 6.012794 -0.000000 0.000000 -0.000000 -0.000000 0.000000 -0.000000 0.000001 -0.000000 0.000001 -16.468136 -9.280335 -24.421739 26.635272 -0.391421 1.021596 -26.850080 -30.279649 12.067739 0.000000 0.000001 -0.000001 0.000000 0.000001 -0.000001 -0.000000 0.000002 -0.000002 4.412851 0.115028 -2.726132 8.831170 0.260024 -5.284699 8.831169 0.260022 -5.284700 -5.626761 1.883836 -1.562385 -33.071373 1.651597 -2.797899 0.000001 0.000000 -0.000000 0.000001 0.000000 -0.000000 0.000001 0.000000 -0.000000 7.281402 -5.719690 10.313151 -14.596246 23.622674 -72.070039 -0.783637 -28.952065 -0.379446 13.991193 -14.710757 9.877546 5.486588 -0.773941 -5.807747 -18.054229 19.026168 3.018206 -0.000001 0.000001 -0.000001 -8.458243 1.863082 -9.250193 1.066664 2.170633 -27.937644 0.000001 -0.000000 -0.000004 -1.079616 1.862441 -10.177502 -0.218136 -1.172067 -27.817880 0.000001 -0.000000 -0.000003 1.926824 8.601080 -22.551662 -0.513595 -1.042031 -23.081084 -0.000000 0.000000 -0.000002 8.966872 11.125583 -37.871770 -0.652101 -3.049065 -17.760983 -0.000002 0.000002 -0.000002 -0.000001 0.000001 0.000004 1.629915 15.450036 -7.833583 -7.790856 13.913445 74.041409 0.779420 36.340008 -0.461770 -32.188885 3.597552 -3.687255 -2.383959 -7.470129 -5.706628 -7.343604 -6.135318 -3.900642 0.000001 0.000001 -0.000001 -7.079959 -5.668763 14.231286 0.355272 -1.400207 23.518295 -0.000001 -0.000001 0.000003 0.161071 -7.246662 17.064131 -0.503497 1.610193 28.964705 0.000001 0.000000 -0.000000 1.568380 -11.657496 21.120509 -0.545158 0.959605 33.408535 0.000001 0.000000 -0.000001 1.681042 -3.598513 39.615234 -0.667160 3.134708 29.894853 -0.000000 0.000000 -0.000001 0.000000 -0.000001 -0.000001 0.000001 0.000000 -0.000000 0.000001 0.000000 -0.000000 0.000001 0.000000 -0.000000 0.000001 0.000000 -0.000000 0.000001 0.000000 -0.000000 0.000001 -0.000000 -0.000000 0.000001 0.000000 -0.000000 0.000001 0.000000 -0.000000 0.000001 -0.000000 -0.000000 -0.000002 0.000001 0.000000 -0.000002 0.000001 0.000000 0.000002 -0.000000 0.000001 
6.499142 72.456360 70.354980 30.243395 -10.320158 20.099223 0.000001 0.000001 -0.000002 -67.591716 14.619730 -8.800797 46.790173 0.175456 -1.531336 -8.627504 7.881088 5.850101 0.000000 0.000000 -0.000000 0.000000 0.000000 -0.000000 -0.000000 -0.000001 0.000000 -16.084691 -9.300814 -23.898562 26.490313 -0.375316 1.019303 -28.684284 -30.578962 10.448017 -0.000000 0.000001 0.000000 -0.000000 0.000001 0.000000 0.000003 -0.000000 -0.000000 4.397569 0.116588 -2.686469 8.800653 0.265124 -5.201465 8.800642 0.265131 -5.201468 -5.363963 1.953413 -1.570528 -31.847256 1.601996 -3.017620 -0.000001 0.000000 0.000000 -0.000001 0.000000 0.000000 -0.000001 0.000000 0.000000 6.909144 -5.487389 9.587245 -15.659293 21.983522 -72.640913 -0.698361 -29.155735 -0.340323 13.160243 -14.575018 9.477417 6.002103 -0.612264 -5.931509 -18.408849 19.909470 3.766534 -0.000001 0.000001 -0.000001 -8.460888 2.275886 -10.509155 1.150029 2.309285 -30.089367 0.000001 -0.000000 -0.000002 -1.067647 2.061728 -11.417623 -0.245946 -1.233487 -29.042487 -0.000003 -0.000001 -0.000002 1.845748 8.262354 -23.693643 -0.571275 -1.168496 -24.522596 -0.000001 -0.000001 -0.000001 8.617744 10.425812 -39.229909 -0.697948 -3.184171 -18.550194 -0.000001 -0.000001 -0.000000 -0.000001 -0.000000 -0.000001 1.415426 13.615227 -6.782668 -3.984223 13.823855 75.877063 0.413388 33.943554 -0.230727 -29.725513 4.921767 -2.667671 -2.991180 -7.070509 -7.208414 -5.808780 -7.038611 -4.279502 -0.000001 -0.000000 -0.000000 -6.998931 -6.254380 16.117727 0.389588 -1.455336 24.858193 -0.000002 0.000000 -0.000000 0.371022 -7.795690 18.785399 -0.541788 1.677693 30.136502 0.000002 0.000000 0.000001 1.634118 -11.375634 22.690059 -0.609839 1.058879 35.228237 -0.000000 0.000001 0.000002 0.343757 -1.787058 41.239869 -0.678093 3.158959 30.128688 0.000001 -0.000001 -0.000002 -0.000001 -0.000000 -0.000000 -0.000001 0.000000 -0.000001 -0.000001 0.000000 -0.000001 -0.000001 0.000000 -0.000001 -0.000001 0.000000 -0.000001 -0.000001 0.000000 -0.000001 0.000001 -0.000000 -0.000000 -0.000001 0.000000 -0.000001 -0.000001 0.000000 -0.000001 0.000001 -0.000000 -0.000000 -0.000000 0.000000 -0.000000 -0.000000 0.000000 -0.000000 0.000001 0.000001 -0.000002 
6.442240 72.460114 69.622353 29.670581 -10.541861 19.902061 -0.000002 0.000002 -0.000001 -67.439956 14.730187 -8.348313 46.406071 0.061203 -1.529953 -7.771316 7.738592 5.719938 -0.000000 0.000000 -0.000000 -0.000000 0.000000 -0.000000 -0.000001 -0.000000 -0.000001 -15.722971 -9.301302 -23.392525 26.486336 -0.384952 1.019557 -30.330114 -30.674086 9.058641 -0.000000 0.000000 0.000000 -0.000000 0.000000 0.000000 -0.000002 0.000001 -0.000000 4.374682 0.117719 -2.629266 8.754836 0.269558 -5.083363 8.754840 0.269552 -5.083367 -5.100343 2.020230 -1.577924 -30.696335 1.610412 -3.247572 -0.000001 0.000000 -0.000000 -0.000001 0.000000 -0.000000 -0.000001 0.000000 -0.000000 6.512408 -5.222754 8.876326 -16.554772 20.110247 -73.193666 -0.601418 -29.218071 -0.293665 12.216987 -14.693895 9.234268 6.488107 -0.505270 -6.002480 -18.648746 20.662249 4.362429 0.000002 -0.000000 -0.000001 -8.454669 2.624843 -11.550615 1.230448 2.431277 -32.035076 -0.000001 -0.000001 -0.000004 -1.075880 2.146534 -12.557229 -0.275223 -1.295556 -30.292869 0.000001 -0.000000 -0.000002 1.776263 7.993276 -24.651433 -0.630239 -1.288549 -25.914911 -0.000001 0.000000 -0.000002 8.265824 9.870353 -40.171163 -0.742278 -3.308541 -19.280560 -0.000002 -0.000001 0.000001 -0.000001 0.000000 0.000002 1.210982 11.784538 -5.733842 -0.169764 12.780095 76.873021 0.275382 34.619924 -0.156362 -26.408687 3.785520 -2.302439 -3.485996 -6.711979 -8.476377 -4.270535 -7.949547 -4.605669 -0.000001 -0.000001 -0.000001 -6.976391 -6.596277 18.401359 0.435863 -1.527421 26.625375 0.000000 0.000001 0.000000 0.514124 -8.061958 20.573206 -0.585203 1.750576 31.417719 0.000001 0.000001 -0.000000 1.645715 -10.993324 24.175852 -0.666680 1.140976 36.763271 0.000002 0.000001 0.000000 -0.316547 -1.007511 42.579287 -0.698600 3.205364 30.566381 -0.000001 0.000000 0.000002 0.000002 -0.000000 0.000000 0.000003 -0.000000 -0.000000 0.000003 -0.000000 -0.000000 0.000003 -0.000000 -0.000000 0.000003 -0.000000 -0.000000 0.000003 -0.000000 -0.000000 0.000003 0.000000 -0.000001 0.000003 -0.000000 -0.000000 0.000003 -0.000000 -0.000000 0.000003 0.000000 -0.000001 0.000003 -0.000000 -0.000000 0.000003 -0.000000 -0.000000 -0.000002 0.000002 -0.000001 
6.381794 72.478477 68.906242 28.979482 -10.868175 19.589751 -0.000001 0.000001 -0.000000 -67.145718 14.850945 -7.769736 46.049593 -0.048174 -1.528890 -6.957097 7.507979 5.608412 0.000000 -0.000000 -0.000000 0.000000 -0.000000 -0.000000 -0.000001 0.000000 -0.000000 -15.380464 -9.356809 -22.859149 26.592530 -0.362634 1.026889 -31.803362 -30.505616 8.027363 -0.000000 -0.000001 0.000001 -0.000000 -0.000001 0.000001 0.000003 -0.000001 -0.000000 4.345497 0.118580 -2.561686 8.696306 0.273339 -4.936704 8.696307 0.273340 -4.936700 -4.837698 2.084293 -1.584609 -29.599123 1.674191 -3.442683 -0.000000 -0.000000 0.000000 -0.000000 -0.000000 0.000000 -0.000000 -0.000000 0.000000 6.093906 -4.929646 8.173722 -16.925089 17.494348 -73.611776 -0.507919 -29.392104 -0.249383 10.671042 -14.798460 9.280869 6.936767 -0.450960 -6.048068 -18.805589 21.286809 4.826592 0.000001 -0.000001 -0.000005 -8.420150 2.929612 -12.263470 1.305165 2.535906 -33.749723 -0.000002 0.000000 -0.000003 -1.102897 2.147033 -13.600699 -0.305433 -1.357007 -31.544348 -0.000002 -0.000001 -0.000000 1.716264 7.776733 -25.466604 -0.689439 -1.401136 -27.244142 -0.000003 -0.000002 -0.000002 7.789955 9.381646 -40.139102 -0.784085 -3.420466 -19.941427 0.000002 0.000000 0.000003 0.000001 0.000001 0.000001 1.017272 9.971855 -4.702666 2.413511 10.139029 77.994415 0.199392 35.569573 -0.115875 -20.980012 2.113801 -1.336042 -3.844260 -6.408614 -9.474752 -2.727837 -8.866234 -4.878673 -0.000001 0.000002 -0.000000 -7.000665 -6.754645 20.727059 0.496080 -1.613790 28.785897 -0.000003 0.000000 0.000000 0.563103 -7.994486 22.350722 -0.678128 1.895174 34.014038 0.000002 0.000001 -0.000003 1.651097 -10.666893 25.524005 -0.715304 1.207878 38.035684 -0.000000 0.000001 0.000001 -0.509018 -0.875852 43.905696 -0.775213 3.371300 32.156459 0.000000 -0.000001 -0.000002 0.000002 -0.000001 0.000001 0.000001 0.000000 -0.000001 0.000001 0.000000 -0.000001 0.000001 0.000000 -0.000001 0.000001 0.000000 -0.000001 0.000001 0.000000 -0.000001 0.000001 -0.000001 -0.000000 0.000001 0.000000 -0.000001 0.000001 0.000000 -0.000001 0.000001 -0.000001 -0.000000 -0.000003 0.000001 -0.000000 -0.000003 0.000001 -0.000000 -0.000001 0.000001 -0.000000 
